<svg xmlns="http://www.w3.org/2000/svg" width="22" height="22" viewBox="0 0 22 22">
  <path fill="#000000" d="M2 11.35c2.26-.2 4.07-.25 4.72-.86.55-.52 1.51-3.84 2.76-3.55 1.2.28.35 7.67 1.28 7.98 1.03.34 2.5-8.66 4.03-8.03 1.46.6.4 6.35 1.39 6.67.62.2 1.24-1.34 2.1-1.76.7-.34 1.4-.23 1.72-.18v1.02c-1.35.08-2.08.15-2.8.87-.72.71-1.55 2.48-2.66 2.14-1.52-.47-.42-6.16-1.45-6.53-1.08-.4-2.43 8.57-4.04 8.01-1.64-.57-.46-7.36-1.34-7.62-.6-.18-1.22 2.65-2.19 3.14-.81.41-2.28.35-3.52.27v-1.57z"/>
</svg>
